<?xml version="1.0" encoding="iso-8859-1"?>
<!-- Uploaded to: SVG Repo, www.svgrepo.com, Generator: SVG Repo Mixer Tools -->
<svg fill="#000000" height="800px" width="800px" version="1.1" id="Layer_1" xmlns="http://www.w3.org/2000/svg" xmlns:xlink="http://www.w3.org/1999/xlink" 
	 viewBox="0 0 512 512" xml:space="preserve">
<g>
	<g>
		<path d="M385.788,196.377h-55.643v-43.262c0-7.799-6.324-14.123-14.123-14.123h-45.899v-24.009
			c0-12.977,10.56-23.537,23.538-23.537h56.964c12.979,0,23.538,10.56,23.538,23.537c0,28.555,23.229,51.784,51.782,51.784h16.474
			c7.799,0,14.123-6.324,14.123-14.123c0-7.799-6.324-14.123-14.123-14.123h-16.474c-12.977,0-23.537-10.56-23.537-23.538
			c0-28.553-23.23-51.782-51.784-51.782h-56.964c-28.553,0-51.784,23.229-51.784,51.782v24.009h-45.899
			c-7.799,0-14.123,6.324-14.123,14.123v43.262h-55.643C56.619,196.377,0,252.995,0,322.588s56.619,126.21,126.212,126.21
			c47.889,0,91.067-26.772,112.503-68.964h34.571c21.435,42.192,64.614,68.964,112.503,68.964
			c69.592,0,126.212-56.618,126.212-126.21S455.381,196.377,385.788,196.377z M210.102,167.238h91.798v29.139h-91.798V167.238z
			 M385.788,420.553c-39.665,0-75.168-23.661-90.446-60.28c-2.195-5.259-7.334-8.684-13.034-8.684h-52.617
			c-5.698,0-10.839,3.426-13.034,8.684c-15.278,36.619-50.781,60.28-90.446,60.28c-54.019,0-97.966-43.947-97.966-97.965
			s43.947-97.965,97.966-97.965h69.766h120.043h69.766c54.019,0,97.966,43.947,97.966,97.965
			C483.753,376.606,439.808,420.553,385.788,420.553z"/>
	</g>
</g>
<g>
	<g>
		<path d="M125.604,259.923c-33.356,0-60.493,27.137-60.493,60.492s27.137,60.492,60.493,60.492
			c33.355,0,60.492-27.137,60.492-60.492C186.096,287.059,158.959,259.923,125.604,259.923z M125.604,352.661
			c-17.782,0-32.248-14.466-32.248-32.246c0-17.78,14.466-32.246,32.248-32.246c17.781,0,32.246,14.466,32.246,32.246
			C157.851,338.195,143.383,352.661,125.604,352.661z"/>
	</g>
</g>
<g>
	<g>
		<path d="M446.613,319.82c-0.184-0.89-0.452-1.779-0.805-2.641c-0.353-0.847-0.791-1.667-1.299-2.429
			c-0.507-0.777-1.1-1.497-1.75-2.147c-0.665-0.65-1.384-1.243-2.148-1.765c-0.777-0.508-1.596-0.932-2.442-1.285
			c-0.849-0.353-1.737-0.635-2.641-0.819c-1.822-0.367-3.7-0.367-5.522,0c-0.905,0.184-1.795,0.466-2.641,0.819
			s-1.666,0.777-2.443,1.285c-0.763,0.523-1.483,1.116-2.147,1.765c-0.65,0.65-1.243,1.37-1.751,2.147
			c-0.507,0.763-0.946,1.582-1.299,2.429c-0.353,0.861-0.62,1.751-0.805,2.641c-0.184,0.918-0.281,1.852-0.281,2.768
			c0,0.918,0.097,1.852,0.281,2.754c0.185,0.905,0.452,1.795,0.805,2.641c0.353,0.862,0.792,1.681,1.299,2.443
			c0.523,0.777,1.102,1.497,1.751,2.147c0.664,0.65,1.383,1.243,2.147,1.751c0.778,0.507,1.597,0.946,2.443,1.299
			c0.846,0.353,1.736,0.636,2.641,0.805c0.917,0.184,1.836,0.281,2.754,0.281c0.931,0,1.85-0.097,2.768-0.281
			c0.904-0.169,1.794-0.452,2.641-0.805c0.847-0.353,1.666-0.792,2.442-1.299c0.763-0.508,1.483-1.102,2.148-1.751
			c0.65-0.65,1.227-1.37,1.75-2.147c0.508-0.763,0.946-1.582,1.299-2.443c0.353-0.847,0.621-1.736,0.805-2.641
			c0.184-0.904,0.282-1.836,0.282-2.754C446.896,321.671,446.797,320.738,446.613,319.82z"/>
	</g>
</g>
<g>
	<g>
		<path d="M388.287,265.397c-7.799,0-14.123,6.324-14.123,14.123v28.946h-30.361c-7.799,0-14.123,6.324-14.123,14.123
			c0,7.799,6.324,14.123,14.123,14.123h30.36v28.947c0,7.799,6.324,14.123,14.123,14.123s14.123-6.324,14.123-14.123v-86.139
			C402.409,271.719,396.085,265.397,388.287,265.397z"/>
	</g>
</g>
<g>
	<g>
		<path d="M275.419,251.268h-38.837c-7.799,0-14.123,6.324-14.123,14.123c0,7.799,6.324,14.123,14.123,14.123h38.837
			c7.799,0,14.123-6.324,14.123-14.123C289.542,257.592,283.218,251.268,275.419,251.268z"/>
	</g>
</g>
<g>
	<g>
		<path d="M275.419,299.285h-38.837c-7.799,0-14.123,6.324-14.123,14.123c0,7.799,6.324,14.123,14.123,14.123h38.837
			c7.799,0,14.123-6.324,14.123-14.123C289.542,305.609,283.218,299.285,275.419,299.285z"/>
	</g>
</g>
<g>
	<g>
		<path d="M504.05,149.883c-0.184-0.904-0.452-1.794-0.805-2.64c-0.353-0.849-0.791-1.668-1.299-2.43
			c-0.521-0.777-1.116-1.497-1.765-2.159c-0.65-0.65-1.37-1.229-2.147-1.751c-0.763-0.508-1.582-0.946-2.429-1.299
			c-0.862-0.353-1.751-0.621-2.641-0.805c-4.59-0.918-9.476,0.579-12.753,3.856c-0.65,0.664-1.243,1.383-1.751,2.159
			c-0.507,0.763-0.946,1.582-1.299,2.43c-0.353,0.847-0.62,1.736-0.804,2.64c-0.185,0.918-0.282,1.837-0.282,2.768
			c0,0.918,0.097,1.852,0.282,2.754c0.184,0.904,0.451,1.794,0.804,2.639c0.353,0.849,0.792,1.681,1.299,2.443
			c0.508,0.777,1.102,1.497,1.751,2.147c2.627,2.627,6.271,4.138,9.985,4.138c0.917,0,1.85-0.097,2.768-0.281
			c0.89-0.184,1.779-0.452,2.641-0.805c0.847-0.353,1.667-0.791,2.429-1.299c0.777-0.508,1.497-1.102,2.147-1.751
			c0.65-0.65,1.244-1.37,1.765-2.147c0.508-0.763,0.932-1.596,1.285-2.443c0.353-0.847,0.635-1.736,0.819-2.641
			c0.184-0.904,0.268-1.836,0.268-2.754C504.319,151.72,504.233,150.801,504.05,149.883z"/>
	</g>
</g>
</svg>